<svg width="23" height="25" viewBox="0 0 23 25" fill="" xmlns="http://www.w3.org/2000/svg">
<path fill-rule="evenodd" clip-rule="evenodd" d="M15.7037 0.0244769C15.722 -0.0014862 15.7577 -0.00779593 15.7837 0.0103837L17.5588 1.25335C17.5848 1.27153 17.5911 1.30731 17.5729 1.33327L15.1022 4.86176C16.3034 5.24549 17.1217 5.65941 17.1217 5.65941C17.1217 5.65941 15.1215 9.1 11.7289 9.1C8.3363 9.1 5.92557 5.89331 5.92557 5.89331C5.92557 5.89331 6.78037 5.34779 8.04748 4.87992L5.33747 1.6503C5.31711 1.62602 5.32028 1.58982 5.34455 1.56945L7.00459 0.176499C7.02891 0.156126 7.06509 0.159293 7.08545 0.183573L10.5168 4.27284C10.8106 4.23961 11.1099 4.22103 11.4119 4.22103C11.8461 4.22103 12.2797 4.25404 12.703 4.31004L15.7037 0.0244769ZM16.3749 9.26294C17.2803 8.61635 18.6502 6.92872 18.6502 6.92872C18.6502 6.92872 22.1495 9.70171 22.1495 15.5815C22.1495 21.4612 16.0998 25 16.0998 25C16.0998 25 13.2094 22.081 12.4998 18.3807C11.7903 14.6804 13.5494 10.5716 13.5494 10.5716C13.5494 10.5716 15.4696 9.90953 16.3749 9.26294ZM6.62465 9.26294C5.71931 8.61635 4.34937 6.92872 4.34937 6.92872C4.34937 6.92872 0.850098 9.70171 0.850098 15.5815C0.850098 21.4612 6.8998 25 6.8998 25C6.8998 25 9.79023 22.081 10.4998 18.3807C11.2093 14.6804 9.45018 10.5716 9.45018 10.5716C9.45018 10.5716 7.53004 9.90953 6.62465 9.26294Z" fill=""/>
</svg>
