<svg width="23" height="25" viewBox="0 0 23 25" fill="" xmlns="http://www.w3.org/2000/svg">
<path fill-rule="evenodd" clip-rule="evenodd" d="M12.7127 12.4454C12.8822 12.342 13.0259 12.1255 13.1418 11.8849C14.6675 12.5084 15.7396 13.9819 15.7396 15.7002C15.7396 17.9829 13.8475 19.8334 11.5135 19.8334C10.5554 19.8334 9.67178 19.5216 8.96294 18.996C8.73042 18.8859 8.53911 18.7802 8.38257 18.6936C8.13975 18.5594 7.98052 18.4713 7.88081 18.4851C7.58936 18.5253 7.67398 18.7935 7.75088 19.0371C7.80308 19.2025 7.85176 19.3567 7.77642 19.4203C7.69761 19.4869 7.44234 19.2435 7.14404 18.9591C6.73799 18.5719 6.25225 18.1088 6.02319 18.2479C5.84209 18.3579 6.01792 18.6563 6.23316 19.0215L6.24912 19.0486C6.34004 19.203 6.44541 19.3603 6.54155 19.5037C6.73701 19.7953 6.89443 20.0302 6.81567 20.07C6.72046 20.118 6.05708 19.6703 5.49805 19.0486C5.28228 18.8087 5.07329 18.5487 4.87905 18.307V18.307C4.45391 17.778 4.09971 17.3373 3.90088 17.3895C3.6617 17.4523 3.84263 17.9457 4.1085 18.4204C4.23281 18.6424 4.37905 18.8685 4.50566 19.0643V19.0643C4.70259 19.3687 4.85205 19.5997 4.79785 19.6281C4.72471 19.6664 4.0811 19.0388 3.64397 18.2479C3.38432 17.7781 3.1663 17.259 2.9898 16.8387C2.79839 16.3829 2.65581 16.0434 2.56192 16.0092C2.23572 15.8905 2.23572 16.5556 2.36655 17.5155C2.38361 17.6408 2.40903 17.7721 2.44032 17.9059C3.70908 22.011 7.60659 25 12.2179 25C17.8584 25 22.4308 20.5279 22.4308 15.0113C22.4308 9.76074 18.2888 5.4564 13.0261 5.05342C13.0328 4.80607 13.1619 4.31558 13.1619 4.31558C13.1619 4.31558 14.0909 2.06773 14.14 1.5874C14.1433 1.55552 14.1471 1.52087 14.1513 1.48398C14.2091 0.964985 14.3168 0 13.4866 0C13.0433 0 12.8371 0.329816 12.6013 0.707026V0.707031C12.5108 0.851841 12.4159 1.00364 12.3015 1.14644C11.4779 2.17498 10.0929 3.45941 9.30762 4.14371C7.64776 5.59004 6.01924 6.77871 5.06943 7.47197L5.06939 7.47202C4.6374 7.7873 4.34585 8.00015 4.25562 8.08809C3.57564 8.75098 1.13754 13.1487 1.13754 13.1487C1.13754 13.1487 0.349087 14.5597 0.629336 14.8458C0.909585 15.132 1.58541 15.0664 1.58541 15.0664C1.58541 15.0664 10.6646 12.9835 11.4774 12.8193C11.6962 12.775 11.8507 12.7495 11.9693 12.7299C12.2914 12.6768 12.3492 12.6672 12.7127 12.4454ZM6.29346 9.76875C5.8061 10.232 4.99785 11.3377 4.99785 11.3377C4.99785 11.3377 6.5 11.4302 7.3273 10.6438C8.15464 9.85742 7.96509 8.51724 7.96509 8.51724C7.96509 8.51724 6.78076 9.30552 6.29346 9.76875Z" fill=""/>
</svg>
