<svg width="19" height="25" viewBox="0 0 19 25" fill="" xmlns="http://www.w3.org/2000/svg">
<path fill-rule="evenodd" clip-rule="evenodd" d="M14.2084 19.3064C14.5173 18.1769 13.9177 15.855 13.9177 15.855C13.9177 15.855 13.4829 17.7465 12.8034 18.4457C12.2237 19.042 11.5135 19.4556 10.4949 19.5643C11.3277 19.1598 11.9004 18.3164 11.9004 17.3416C11.9004 15.9731 10.7719 14.8637 9.3798 14.8637C7.98771 14.8637 6.85914 15.9731 6.85914 17.3416C6.85914 17.7153 6.94337 18.0697 7.0941 18.3875C6.2234 17.6939 6.08648 16.5817 6.08648 16.5817C6.08648 16.5817 5.11422 20.6184 7.79322 22.5172C10.4722 24.416 15.7202 22.7839 15.7202 22.7839C15.7202 22.7839 8.20997 28.0682 2.64483 22.3169C-2.14908 17.3625 1.39362 10.84 1.39362 10.84C1.39362 10.84 1.24062 11.4451 1.24062 12.1475C1.24062 12.8499 1.62144 13.3843 1.62144 13.3843C1.62144 13.3843 2.75743 10.9898 3.64151 10.016C4.47823 9.09444 5.52711 8.34698 6.43307 7.70137C7.13043 7.2044 7.74313 6.76778 8.10904 6.35855C10.1245 4.10492 8.88873 0 8.88873 0C8.88873 0 11.1607 2.00293 11.795 4.58974C12.0368 5.57578 11.8812 6.69771 11.7422 7.70098C11.5164 9.32969 11.3339 10.6458 12.965 10.5604C15.6008 10.4223 13.3104 6.35855 13.3104 6.35855C13.3104 6.35855 19.2895 9.50113 18.8428 14.9973C18.3961 20.4935 12.3073 21.743 12.3073 21.743C12.3073 21.743 13.8995 20.4358 14.2084 19.3064Z" fill=""/>
</svg>
