<svg width="25" height="21" viewBox="0 0 25 21" fill="" xmlns="http://www.w3.org/2000/svg">
<path fill-rule="evenodd" clip-rule="evenodd" d="M19.3027 9.9736C19.3013 9.97165 19.3007 9.96921 19.3011 9.96683L20.8928 0.685925C20.8935 0.681651 20.8972 0.678528 20.9015 0.678528H21.4053C21.4092 0.678528 21.4126 0.681047 21.4137 0.68475L24.9996 12.0384C25.0007 12.0419 24.9995 12.0458 24.9966 12.0481L22.3527 14.1123C22.3487 14.1154 22.343 14.1146 22.3401 14.1105L19.3027 9.9736ZM0 16.1262C0 16.13 0.00247515 16.1334 0.00613433 16.1346L5.45624 17.9166C5.45887 17.9175 5.46179 17.9171 5.46408 17.9155L17.6463 9.50518C17.6484 9.50377 17.6498 9.50158 17.6501 9.49914L18.9565 0.733512C18.9573 0.728132 18.9531 0.723298 18.9477 0.723298H8.15724C8.15456 0.723298 8.15208 0.724478 8.15037 0.726519L0.00204781 10.5562C0.000724087 10.5578 0 10.5598 0 10.5619V16.1262ZM7.72732 18.3707L13.6815 20.3211C13.6841 20.322 13.6871 20.3215 13.6894 20.3199L20.7782 15.235C20.7821 15.2323 20.7831 15.2268 20.7804 15.2228L18.123 11.2684C18.1203 11.2642 18.1147 11.2632 18.1106 11.266L7.72732 18.3707Z" fill=""/>
</svg>
