<svg width="17" height="25" viewBox="0 0 17 25" fill="" xmlns="http://www.w3.org/2000/svg">
<path fill-rule="evenodd" clip-rule="evenodd" d="M16.61 16.9204C16.61 21.3827 12.979 25 8.49992 25C4.02087 25 0.389893 21.3827 0.389893 16.9204C0.389893 12.5806 8.06123 0.661548 8.48196 0.011124C8.49158 -0.0037081 8.50832 -0.00370797 8.51789 0.0111242C8.93862 0.661548 16.61 12.5806 16.61 16.9204ZM7.14801 22.4097C3.03259 21.5093 3.73682 16.9505 3.73682 16.9505C3.73682 16.9505 4.8606 19.7024 7.58773 20.5939C10.3148 21.4853 13.6105 20.1779 13.6105 20.1779C13.6105 20.1779 11.2634 23.3102 7.14801 22.4097Z" fill=""/>
</svg>
